<svg width="22" height="21" viewBox="0 0 22 21" fill="none" xmlns="http://www.w3.org/2000/svg">
<path fill-rule="evenodd" clip-rule="evenodd" d="M21.3751 19.3112C21.3751 19.9106 20.8761 20.4025 20.2503 20.4025H14.8031V12.6597H17.383L17.7681 9.64162H14.8031V7.71751C14.8031 6.84079 15.0419 6.25114 16.2894 6.25114H17.8759V3.54342C17.5986 3.50463 16.6591 3.42704 15.5655 3.42704C13.2783 3.42704 11.715 4.83133 11.715 7.41492V9.64162H9.12745V12.6597H11.715V20.4025H2.08697C1.46912 20.4025 0.962158 19.9183 0.962158 19.3112V1.68884C0.962158 1.08939 1.46912 0.597534 2.08697 0.597534H20.2503C20.8682 0.597534 21.3751 1.08171 21.3751 1.68884V19.3112Z" fill="#D0CFD0"/>
</svg>
