<svg width="21" height="21" viewBox="0 0 21 21" fill="none" xmlns="http://www.w3.org/2000/svg">
<path fill-rule="evenodd" clip-rule="evenodd" d="M5.0474 0.621296C5.28964 0.601799 6.53585 0.597534 10.797 0.597534H14.1189C16.513 0.60157 16.6492 0.620713 17.104 0.684612L17.1304 0.688315C18.1144 0.826009 18.9402 1.2068 19.6154 1.83252C19.9938 2.18574 20.2544 2.53119 20.4891 2.99378C20.7751 3.55888 20.9156 4.09351 20.98 4.8886C20.9938 5.0592 21.0001 7.77409 21.0001 10.4908C21.0001 13.2071 20.9943 15.927 20.9805 16.0976C20.9169 16.88 20.7764 17.4192 20.4993 17.9737C19.9482 19.0764 18.9356 19.8807 17.7127 20.1868C17.2691 20.298 16.868 20.3503 16.1773 20.3818C15.9308 20.394 13.353 20.397 10.7751 20.397C8.19731 20.397 5.62105 20.3894 5.36829 20.3788C4.77172 20.3513 4.30702 20.2935 3.88628 20.1884C2.67115 19.8837 1.63971 19.0673 1.09965 17.9798C0.817066 17.4116 0.683622 16.8922 0.612975 16.0667C0.592566 15.8321 0.587856 14.6242 0.587856 10.4934C0.587856 9.98728 0.587648 9.52801 0.58746 9.11051C0.587129 8.37998 0.586857 7.77739 0.587856 7.27571C0.591869 4.95039 0.61136 4.81992 0.67766 4.37616C0.678796 4.36855 0.679946 4.36086 0.68111 4.35305C0.823188 3.39925 1.21567 2.59684 1.86327 1.94462C2.21886 1.58698 2.57916 1.33185 3.03601 1.11176C3.62881 0.8254 4.17295 0.691818 5.0474 0.621296ZM7.685 3.23103C8.4888 3.19554 8.74564 3.18686 10.7922 3.18686H10.7898C12.837 3.18686 13.0929 3.19554 13.8967 3.23103C14.699 3.26667 15.2469 3.3899 15.7273 3.5707C16.2234 3.75728 16.6425 4.00708 17.0617 4.41377C17.4809 4.82015 17.7384 5.22805 17.9315 5.70892C18.1167 6.17379 18.2439 6.70507 18.2816 7.48341C18.3177 8.26327 18.3271 8.51246 18.3271 10.4981C18.3271 12.4837 18.3177 12.7322 18.2816 13.5121C18.2439 14.2901 18.1167 14.8216 17.9315 15.2866C17.7384 15.7673 17.4809 16.1752 17.0617 16.5816C16.643 16.9883 16.2232 17.2387 15.7277 17.4254C15.2483 17.6062 14.7001 17.7294 13.8978 17.7651C13.094 17.8006 12.838 17.8093 10.7913 17.8093C8.74486 17.8093 8.48817 17.8006 7.68437 17.7651C6.88229 17.7294 6.33454 17.6062 5.85509 17.4254C5.35977 17.2387 4.93935 16.9883 4.52065 16.5816C4.10163 16.1752 3.84416 15.7673 3.65153 15.2864C3.46534 14.8216 3.33833 14.2903 3.30144 13.5119C3.26502 12.7321 3.25591 12.4837 3.25591 10.4981C3.25591 8.51246 3.26533 8.26311 3.30128 7.48325C3.33739 6.70522 3.46455 6.17379 3.65138 5.70876C3.84448 5.22805 4.10195 4.82015 4.52112 4.41377C4.93997 4.00723 5.3604 3.75744 5.85603 3.5707C6.33517 3.3899 6.88276 3.26667 7.685 3.23103ZM10.541 4.50432C10.3887 4.50426 10.2475 4.5042 10.1162 4.5044V4.50257C8.71173 4.50409 8.44233 4.51323 7.74717 4.54369C7.01244 4.57644 6.61352 4.69525 6.34789 4.79578C5.99622 4.9286 5.74503 5.08701 5.48129 5.3429C5.21754 5.59879 5.05395 5.8425 4.91737 6.18369C4.81422 6.44141 4.69145 6.82829 4.65786 7.54113C4.62175 8.31186 4.61453 8.54216 4.61453 10.4946C4.61453 12.4469 4.62175 12.6785 4.65786 13.4492C4.6913 14.162 4.81422 14.5489 4.91737 14.8063C5.05426 15.1477 5.21754 15.3908 5.48129 15.6467C5.74503 15.9026 5.99622 16.061 6.34789 16.1935C6.61368 16.2936 7.01244 16.4127 7.74717 16.4456C8.54155 16.4806 8.78002 16.4882 10.7922 16.4882C12.8042 16.4882 13.0429 16.4806 13.8372 16.4456C14.572 16.413 14.971 16.2942 15.2364 16.1936C15.5882 16.0611 15.8386 15.9027 16.1023 15.6468C16.3661 15.3911 16.5297 15.1481 16.6663 14.8069C16.7694 14.5495 16.8922 14.1626 16.9258 13.4498C16.9619 12.6791 16.9697 12.4476 16.9697 10.4964C16.9697 8.54521 16.9619 8.31368 16.9258 7.54296C16.8923 6.83012 16.7694 6.44324 16.6663 6.18582C16.5294 5.84463 16.3661 5.60092 16.1023 5.34503C15.8387 5.08914 15.588 4.93073 15.2364 4.79822C14.9707 4.69814 14.572 4.57903 13.8372 4.54644C13.0427 4.5114 12.8042 4.5044 10.7922 4.5044C10.7052 4.5044 10.6216 4.50436 10.541 4.50432ZM13.9104 6.5954C13.9104 6.11088 14.3154 5.71836 14.8147 5.71836V5.71806C15.3139 5.71806 15.719 6.11103 15.719 6.5954C15.719 7.07977 15.3139 7.47274 14.8147 7.47274C14.3154 7.47274 13.9104 7.07977 13.9104 6.5954ZM6.92232 10.4981C6.92232 8.42457 8.65506 6.74345 10.7922 6.74345C12.9293 6.74345 14.6615 8.42457 14.6615 10.4981C14.6615 12.5715 12.9293 14.2519 10.7922 14.2519C8.65506 14.2519 6.92232 12.5715 6.92232 10.4981ZM13.3041 10.4981C13.3041 9.15203 12.1794 8.06099 10.7922 8.06099C9.40485 8.06099 8.28031 9.15203 8.28031 10.4981C8.28031 11.8439 9.40485 12.9351 10.7922 12.9351C12.1794 12.9351 13.3041 11.8439 13.3041 10.4981Z" fill="#D0CFD0"/>
</svg>
