<svg width="24" height="16" viewBox="0 0 24 16" fill="none" xmlns="http://www.w3.org/2000/svg">
<path d="M23.999 14.5131C23.9854 14.5311 23.963 14.5481 23.9601 14.568C23.8743 15.0179 23.5392 15.1399 23.1389 14.822C23.0473 14.749 22.9616 14.666 22.8807 14.581C20.9637 12.5675 19.0486 10.5541 17.1325 8.53955C17.1062 8.51156 17.0818 8.48157 17 8.38659C17.075 8.3406 17.1617 8.30761 17.2211 8.24663C19.0905 6.32011 20.9569 4.39059 22.8272 2.46507C22.9577 2.3311 23.0989 2.20014 23.2558 2.10216C23.5782 1.90021 23.8178 2.00218 23.9435 2.36809C23.9581 2.41108 23.9805 2.45107 24 2.49206V14.5141L23.999 14.5131Z" fill="#F08B18"/>
<path d="M11.9989 9.53141e-05C15.0177 9.53141e-05 18.0364 -0.000762373 21.0552 0.00266796C21.2492 0.00266796 21.449 0.014674 21.6352 0.055838C21.9791 0.131305 22.0938 0.367998 21.9194 0.638137C21.8321 0.772777 21.7146 0.897127 21.5901 1.00776C18.7154 3.54448 15.8377 6.0795 12.9601 8.61366C12.3761 9.12735 11.5609 9.12906 10.9829 8.61709C8.12576 6.08464 5.26867 3.55135 2.4155 1.01547C2.28029 0.895412 2.15683 0.756483 2.06571 0.608122C1.91972 0.369714 2.0226 0.149315 2.3185 0.0738475C2.5174 0.0232501 2.73296 0.00438316 2.94165 0.00438316C5.96041 9.52488e-05 8.97917 0.00181052 11.9979 0.00181052L11.9989 9.53141e-05Z" fill="#F08B18"/>
<path d="M15.7003 9.00381C15.7397 9.05618 15.7782 9.12378 15.8324 9.17805C17.7392 11.0661 19.648 12.9504 21.5519 14.8403C21.6978 14.986 21.8368 15.1479 21.9354 15.3259C22.0813 15.5896 21.9738 15.8277 21.6761 15.9191C21.5065 15.9714 21.3221 15.9962 21.1437 15.9971C15.0456 16.001 8.94761 16.001 2.84958 15.9971C2.67112 15.9971 2.48675 15.9705 2.31717 15.9181C2.02139 15.8258 1.92181 15.5906 2.06379 15.3221C2.14069 15.1755 2.24717 15.0374 2.36647 14.9193C4.34426 12.9608 6.326 11.0071 8.30675 9.05142C8.32844 9.02952 8.35309 9.01047 8.36492 9C8.80662 9.41417 9.25029 9.81978 9.68214 10.2378C10.1633 10.7033 10.7262 11.0166 11.3987 11.127C12.5335 11.3137 13.5352 11.0566 14.3683 10.2644C14.8001 9.85405 15.233 9.44655 15.7003 9.00381Z" fill="#F08B18"/>
<path d="M7 8.47508C5.68063 9.8456 4.37876 11.1983 3.07689 12.5501C2.4313 13.221 1.78863 13.8939 1.13818 14.5599C1.00887 14.6933 0.86497 14.8208 0.707462 14.9156C0.411891 15.0935 0.154239 14.9838 0.0618736 14.6468C0.0210383 14.4976 0.0025651 14.3366 0.0025651 14.1805C-0.00035171 10.396 -0.00132398 6.61249 0.0025651 2.82801C0.0025651 2.65707 0.0268719 2.48019 0.07743 2.31715C0.169796 2.01874 0.413836 1.91894 0.684127 2.06914C0.83094 2.15115 0.969975 2.25984 1.08859 2.38138C3.03119 4.3754 4.97087 6.37435 6.91055 8.37133C6.9368 8.399 6.96111 8.42864 7 8.47409V8.47508Z" fill="#F08B18"/>
</svg>
