<svg width="43" height="42" viewBox="0 0 43 42" fill="none" xmlns="http://www.w3.org/2000/svg">
<g clip-path="url(#clip0_11_1660)">
<path d="M21.4875 8.72297e-06C9.65647 0.0104942 -0.00713752 9.4602 3.95566e-06 21.0117C0.00714543 32.5608 9.69336 42.0117 21.5125 42C33.3447 41.9884 43.0083 32.5375 43 20.9872C42.9917 9.43341 33.3114 -0.0104767 21.4875 8.72297e-06ZM31.0845 16.0381C30.9726 16.2221 30.8143 16.3841 30.6583 16.5367C27.0329 20.0831 23.4038 23.626 19.7759 27.1701C18.9642 27.9623 18.3476 27.9612 17.5288 27.162C15.7827 25.4575 14.0378 23.7519 12.2905 22.0474C11.9893 21.7538 11.7525 21.4486 11.7596 20.9919C11.768 20.4781 12.0132 20.1414 12.4547 19.9177C12.9177 19.6835 13.3522 19.7767 13.7378 20.0866C13.9782 20.28 14.1901 20.506 14.4115 20.7216C15.6958 21.974 16.98 23.2253 18.2596 24.4823C18.3738 24.5942 18.4548 24.7398 18.5512 24.8691C18.6226 24.875 18.6928 24.8808 18.7642 24.8866C18.8666 24.7433 18.9511 24.5814 19.0749 24.459C22.3838 21.2202 25.6998 17.9872 29.0075 14.7472C29.3407 14.421 29.6943 14.2066 30.1858 14.2695C31.0654 14.3814 31.5368 15.2901 31.0845 16.0369V16.0381Z" fill="#F08B18" fill-opacity="0.38"/>
</g>
<defs>
<clipPath id="clip0_11_1660">
<rect width="43" height="42" fill="white"/>
</clipPath>
</defs>
</svg>
