<svg width="16" height="25" viewBox="0 0 16 25" fill="none" xmlns="http://www.w3.org/2000/svg">
<path d="M11.075 18.3516C11.4015 17.9701 11.7383 17.5685 12.0866 17.178C12.133 17.1258 12.2455 17.0877 12.3101 17.1064C13.3435 17.4125 14.3261 17.8313 15.1397 18.5808C15.6237 19.0272 15.9829 19.5542 15.9866 20.2627C15.9902 20.892 15.7006 21.3877 15.287 21.8147C14.6077 22.5172 13.7637 22.939 12.8682 23.257C10.9509 23.9386 8.97186 24.1267 6.95729 24.0057C5.39411 23.9117 3.87157 23.6243 2.42814 22.974C1.7779 22.6814 1.17194 22.3141 0.672648 21.7833C-0.219974 20.8345 -0.227231 19.711 0.669019 18.7637C1.44263 17.9462 2.43467 17.5237 3.45937 17.1616C3.71192 17.0728 3.87738 17.0914 4.05155 17.3273C4.31861 17.6894 4.63067 18.0164 4.94199 18.3799C4.78524 18.4748 4.63212 18.5613 4.4848 18.6577C3.463 19.3243 3.46373 20.2239 4.49205 20.8801C5.27147 21.3772 6.14377 21.5788 7.04147 21.6632C8.37024 21.7893 9.68668 21.7162 10.932 21.1719C11.2985 21.0122 11.6504 20.7711 11.9444 20.4941C12.3972 20.0671 12.3914 19.4826 11.9516 19.0399C11.6976 18.7838 11.3834 18.5905 11.075 18.3523V18.3516Z" fill="#F08B18"/>
<path d="M15.345 6.54087C14.7913 2.43276 10.9457 -0.540646 6.94419 0.0827013C3.29242 0.650805 0.631971 3.77277 0.567383 7.7047C0.582623 7.8779 0.594234 8.19517 0.639954 8.50796C0.851861 9.9495 1.43388 11.2477 2.14943 12.4847C3.61391 15.0162 5.48987 17.205 7.53492 19.2489C7.85205 19.5662 8.17862 19.5543 8.50809 19.1982C9.42466 18.2068 10.3579 17.2296 11.2288 16.1964C12.506 14.681 13.6403 13.0565 14.4879 11.2387C15.1803 9.75316 15.57 8.21906 15.3443 6.54237L15.345 6.54087ZM8.00663 10.222C6.63504 10.2317 5.49858 9.07084 5.49567 7.65618C5.49277 6.22883 6.5973 5.08366 7.98486 5.07545C9.36951 5.06798 10.4907 6.20942 10.4958 7.63378C10.5009 9.05292 9.38693 10.2123 8.00663 10.222Z" fill="#F08B18"/>
</svg>
