<svg width="19" height="21" viewBox="0 0 19 21" fill="none" xmlns="http://www.w3.org/2000/svg">
<path d="M13.0528 20.2438C11.3797 20.2073 9.8687 19.5891 8.62723 18.3369C6.37122 16.0613 4.11341 13.7875 1.87721 11.4924C-0.645939 8.90349 -0.618324 4.91632 1.91623 2.33528C2.14316 2.10407 2.36708 1.86921 2.6018 1.64591C3.47227 0.81903 4.78998 0.803211 5.65264 1.63253C6.30999 2.2641 6.95113 2.91453 7.57427 3.58078C8.35949 4.41922 8.3739 5.71583 7.62349 6.58773C7.36295 6.89013 7.0694 7.16333 6.79145 7.45051C6.36582 7.89042 6.36642 8.41795 6.79745 8.85542C8.26824 10.3486 9.74023 11.8411 11.2128 13.3324C11.6745 13.7997 12.1871 13.8009 12.6494 13.3391C12.9051 13.0835 13.1513 12.817 13.4172 12.5718C14.3069 11.7498 15.5994 11.751 16.4674 12.5907C17.1122 13.2137 17.7431 13.8532 18.3572 14.5067C19.1779 15.3798 19.1749 16.7214 18.3596 17.5994C17.6453 18.3685 16.9057 19.1078 15.9452 19.5745C15.0525 20.0089 14.116 20.2298 13.0534 20.2432L13.0528 20.2438Z" fill="#F08B18"/>
<path d="M18.9245 6.35639C18.8939 7.18753 18.7474 7.98764 18.4311 8.75246C18.2966 9.07677 17.9886 9.20697 17.7011 9.07433C17.4261 8.94716 17.3187 8.64781 17.4447 8.32168C17.6597 7.76617 17.7767 7.19301 17.8151 6.59734C17.9844 3.95302 15.9661 1.48211 13.3692 1.15476C12.4591 1.04037 11.5796 1.13468 10.7253 1.4748C10.3754 1.61414 10.0692 1.50462 9.94912 1.2083C9.82366 0.897387 9.97134 0.607765 10.3327 0.458087C13.9401 -1.0387 18.1063 1.2874 18.7877 5.18391C18.8555 5.57088 18.8801 5.96516 18.9245 6.35639Z" fill="#F08B18"/>
<path d="M12.6063 2.67442C14.8935 2.66347 16.6434 4.83198 16.1818 7.11975C16.1109 7.47021 15.8522 7.67526 15.5502 7.61928C15.2339 7.56087 15.0616 7.27247 15.127 6.91166C15.3929 5.44408 14.5195 4.10792 13.0811 3.83473C12.7587 3.77328 12.4111 3.80735 12.0798 3.84447C11.6091 3.89679 11.2657 3.54268 11.4176 3.12345C11.4951 2.90989 11.6589 2.79733 11.8715 2.76386C12.1152 2.72553 12.3607 2.70362 12.6056 2.67442H12.6063Z" fill="#F08B18"/>
</svg>
